<svg id="visual" viewBox="0 0 1980 1080" width="1980" height="1080" xmlns="http://www.w3.org/2000/svg" xmlns:xlink="http://www.w3.org/1999/xlink" version="1.1"><rect x="0" y="0" width="1980" height="1080" fill="#002135"></rect><path d="M0 332L66 369.2C132 406.3 264 480.7 396 493.5C528 506.3 660 457.7 792 451.7C924 445.7 1056 482.3 1188 467C1320 451.7 1452 384.3 1584 350.7C1716 317 1848 317 1914 317L1980 317L1980 0L1914 0C1848 0 1716 0 1584 0C1452 0 1320 0 1188 0C1056 0 924 0 792 0C660 0 528 0 396 0C264 0 132 0 66 0L0 0Z" fill="#b6ecff" stroke-linecap="round" stroke-linejoin="miter"></path></svg>